<svg xmlns="http://www.w3.org/2000/svg" width="34.085" height="29.292" viewBox="0 0 34.085 29.292">
  <g id="_009-briefcase" data-name="009-briefcase" transform="translate(0 -35.999)">
    <g id="Grupo_32" data-name="Grupo 32" transform="translate(0 35.999)">
      <path id="Trazado_63" data-name="Trazado 63" d="M30.757,41.325H24.366v-2A3.332,3.332,0,0,0,21.037,36H13.048A3.332,3.332,0,0,0,9.72,39.328v2H3.329A3.332,3.332,0,0,0,0,44.654v6.657a2,2,0,0,0,1.331,1.883v8.769A3.332,3.332,0,0,0,4.66,65.291H29.425a3.332,3.332,0,0,0,3.329-3.329V53.194a2,2,0,0,0,1.331-1.883V44.654A3.332,3.332,0,0,0,30.757,41.325Zm-19.706,0v-2a2,2,0,0,1,2-2h7.989a2,2,0,0,1,2,2v2H21.7v-2a.666.666,0,0,0-.666-.666H13.048a.666.666,0,0,0-.666.666v2Zm9.32,0H13.714V39.993h6.657ZM29.425,63.96H4.66a2,2,0,0,1-2-2V53.308h9.72v.666a.666.666,0,0,0,.452.63,13.309,13.309,0,0,0,1.878.488V56.97a2.33,2.33,0,0,0,4.66,0V55.092a13.3,13.3,0,0,0,1.878-.488.666.666,0,0,0,.452-.63v-.666h9.72v8.654A2,2,0,0,1,29.425,63.96ZM16.044,55.266q.5.039,1,.039t1-.039v1.7a1,1,0,1,1-2,0Zm-2.33-1.779v-1.51a.666.666,0,0,1,.666-.666h5.326a.666.666,0,0,1,.666.666v1.51A11.668,11.668,0,0,1,13.714,53.487Zm19.04-2.176a.666.666,0,0,1-.666.666H21.7a2,2,0,0,0-2-2H14.38a2,2,0,0,0-2,2H2a.666.666,0,0,1-.666-.666V44.654a2,2,0,0,1,2-2H30.757a2,2,0,0,1,2,2Z" transform="translate(0 -35.999)" fill="#fff"/>
      <path id="Trazado_64" data-name="Trazado 64" d="M150.661,156a.666.666,0,0,0,0,1.331h0a.666.666,0,1,0,0-1.331Z" transform="translate(-140.009 -148.013)" fill="#fff"/>
      <path id="Trazado_65" data-name="Trazado 65" d="M54.329,156H50.668a.666.666,0,0,0,0,1.331h3.661a.666.666,0,0,0,0-1.331Z" transform="translate(-46.673 -148.013)" fill="#fff"/>
    </g>
  </g>
</svg>
