<svg xmlns="http://www.w3.org/2000/svg" width="39.578" height="48.164" viewBox="0 0 39.578 48.164">
  <g id="_038-shield" data-name="038-shield" transform="translate(0.25 0.274)">
    <g id="Grupo_61" data-name="Grupo 61" transform="translate(0 0)">
      <path id="Trazado_178" data-name="Trazado 178" d="M85.087,11.311A2.818,2.818,0,0,0,83.66,8.856l-.035-.019L66.894.355A2.712,2.712,0,0,0,64.231.342L47.583,8.778a2.829,2.829,0,0,0-1.571,2.534V25.106A21.368,21.368,0,0,0,51.35,39.034a27.3,27.3,0,0,0,13.431,8.494,2.723,2.723,0,0,0,1.49.014,27.3,27.3,0,0,0,13.481-8.508A21.367,21.367,0,0,0,85.09,25.106ZM78.334,37.829A25.418,25.418,0,0,1,65.78,45.747a.851.851,0,0,1-.475,0l-.019-.006a25.422,25.422,0,0,1-12.517-7.908,19.532,19.532,0,0,1-4.895-12.722V11.312a.957.957,0,0,1,.528-.863l.016-.008L65.088,1.994l.035-.019a.868.868,0,0,1,.865.006L66.032,2l16.73,8.482a.955.955,0,0,1,.463.826l0,13.794A19.531,19.531,0,0,1,78.334,37.829Z" transform="translate(-46.012 0.001)" fill="#1f467a" stroke="#1f4678" stroke-width="0.5"/>
      <path id="Trazado_179" data-name="Trazado 179" d="M117.134,50.2l-14.885-7.546a.93.93,0,0,0-.841,0L97.7,44.536a.93.93,0,1,0,.841,1.66l3.286-1.665,13.955,7.075,0,12.1a15.858,15.858,0,0,1-4.008,10.311,21.693,21.693,0,0,1-9.948,6.518,21.693,21.693,0,0,1-9.948-6.518A15.863,15.863,0,0,1,87.873,63.7V51.6l3.2-1.62a.93.93,0,1,0-.841-1.66L86.522,50.2a.93.93,0,0,0-.51.83V63.7a17.7,17.7,0,0,0,4.452,11.517,23.592,23.592,0,0,0,11.1,7.177.93.93,0,0,0,.535,0,23.59,23.59,0,0,0,11.1-7.177,17.691,17.691,0,0,0,4.452-11.516l0-12.671a.93.93,0,0,0-.51-.83Z" transform="translate(-82.29 -38.597)" fill="#1f467a" stroke="#1f4678" stroke-width="0.5"/>
      <path id="Trazado_180" data-name="Trazado 180" d="M138.108,151.061a12.1,12.1,0,1,0-12.1-12.1A12.109,12.109,0,0,0,138.108,151.061Zm0-22.33a10.235,10.235,0,1,1-10.235,10.235A10.246,10.246,0,0,1,138.108,128.731Z" transform="translate(-118.569 -115.066)" fill="#1f467a" stroke="#1f4678" stroke-width="0.5"/>
      <path id="Trazado_181" data-name="Trazado 181" d="M174.386,183.618a8.374,8.374,0,1,0-8.374-8.374A8.383,8.383,0,0,0,174.386,183.618Zm0-14.887a6.513,6.513,0,1,1-6.513,6.513A6.52,6.52,0,0,1,174.386,168.731Z" transform="translate(-154.847 -151.344)" fill="#1f467a" stroke="#1f4678" stroke-width="0.5"/>
      <path id="Trazado_183" data-name="Trazado 183" d="M166.94,84.951a.93.93,0,0,0,0-1.861h0a.93.93,0,0,0,0,1.861Z" transform="translate(-154.844 -75.359)" fill="#1f467a" stroke="#1f4678" stroke-width="0.5"/>
    </g>
  </g>
</svg>
