<svg id="_040-startup" data-name="040-startup" xmlns="http://www.w3.org/2000/svg" width="54.733" height="54.733" viewBox="0 0 54.733 54.733">
  <g id="Grupo_63" data-name="Grupo 63" transform="translate(0 0)">
    <path id="Trazado_186" data-name="Trazado 186" d="M53.664,47.25H52.595V13.042a3.211,3.211,0,0,0-3.207-3.207H35.4a17.5,17.5,0,0,0-1.519-4.314A10.339,10.339,0,0,0,27.666.043a1.069,1.069,0,0,0-.6,0,10.339,10.339,0,0,0-6.218,5.479A17.5,17.5,0,0,0,19.33,9.836H5.345a3.211,3.211,0,0,0-3.207,3.207V47.25H1.069A1.069,1.069,0,0,0,0,48.319v3.207a3.211,3.211,0,0,0,3.207,3.207H51.526a3.211,3.211,0,0,0,3.207-3.207V48.319a1.069,1.069,0,0,0-1.069-1.069Zm-19.883,0a1.069,1.069,0,0,0-1.069,1.069H22.022a1.069,1.069,0,0,0-1.069-1.069H12.828V45.112H50.457V47.25ZM49.388,11.973a1.07,1.07,0,0,1,1.069,1.069v1.069H35.908q-.03-1.092-.153-2.138Zm-22.021,25.7a4.94,4.94,0,0,1-1.457-5.6h2.914A4.94,4.94,0,0,1,27.366,37.669ZM33.78,14.831a26.8,26.8,0,0,1-4.82,15.1H25.773a26.8,26.8,0,0,1-4.82-15.1,18.967,18.967,0,0,1,1.385-7.446,16.387,16.387,0,0,0,5.029.766A16.381,16.381,0,0,0,32.4,7.385a18.967,18.967,0,0,1,1.385,7.446ZM21.966,27.794H18.881a8.642,8.642,0,0,1-.066-1.069A8.516,8.516,0,0,1,19.93,22.5a29.892,29.892,0,0,0,2.037,5.294ZM34.8,22.5a8.515,8.515,0,0,1,1.115,4.225,8.642,8.642,0,0,1-.066,1.069H32.767A29.907,29.907,0,0,0,34.8,22.5ZM27.366,2.191a7.966,7.966,0,0,1,4,3.275,14.415,14.415,0,0,1-4,.548,14.413,14.413,0,0,1-4-.549A7.965,7.965,0,0,1,27.366,2.191ZM4.276,13.042a1.07,1.07,0,0,1,1.069-1.069H18.978q-.121,1.045-.153,2.138H16.8a1.069,1.069,0,0,0,0,2.138h2.057a28.189,28.189,0,0,0,.426,3.479,10.639,10.639,0,0,0-2.608,7,10.747,10.747,0,0,0,.265,2.375,1.069,1.069,0,0,0,1.042.832h5.191q.395.619.817,1.186a7.124,7.124,0,0,0,2.8,8.777,1.069,1.069,0,0,0,1.145,0,7.124,7.124,0,0,0,2.8-8.777q.421-.567.817-1.186h5.191a1.069,1.069,0,0,0,1.042-.832,10.746,10.746,0,0,0,.265-2.375,10.637,10.637,0,0,0-2.608-7,28.206,28.206,0,0,0,.426-3.479H50.457V42.974H4.276V16.249h2.9a1.069,1.069,0,1,0,0-2.138h-2.9Zm0,32.07H10.69V47.25H4.276Zm48.319,6.414A1.07,1.07,0,0,1,51.526,52.6H3.207a1.07,1.07,0,0,1-1.069-1.069V49.388H20.17a2.139,2.139,0,0,0,1.851,1.069h10.69a2.139,2.139,0,0,0,1.851-1.069H52.595Z" transform="translate(0 0)" fill="#1f467a"/>
    <path id="Trazado_187" data-name="Trazado 187" d="M223.5,120.974a3.474,3.474,0,1,0,3.474-3.474A3.478,3.478,0,0,0,223.5,120.974Zm4.81,0a1.336,1.336,0,1,1-1.336-1.336A1.338,1.338,0,0,1,228.311,120.974Z" transform="translate(-199.609 -104.939)" fill="#1f467a"/>
    <path id="Trazado_188" data-name="Trazado 188" d="M103.238,134.142a1.069,1.069,0,1,0,0-2.138h0a1.069,1.069,0,0,0,0,2.138Z" transform="translate(-91.247 -117.893)" fill="#1f467a"/>
  </g>
</svg>
