<svg xmlns="http://www.w3.org/2000/svg" width="40.367" height="43.895" viewBox="0 0 40.367 43.895">
  <path id="apartment-outlined" d="M139.584,92.218h-5.095V84.772a.393.393,0,0,0-.392-.392H121.947v-4.7h5.291a.786.786,0,0,0,.784-.784V64.784a.786.786,0,0,0-.784-.784H113.129a.786.786,0,0,0-.784.784V78.893a.786.786,0,0,0,.784.784h5.291v4.7H106.271a.393.393,0,0,0-.392.392v7.446h-5.095A.786.786,0,0,0,100,93v14.109a.786.786,0,0,0,.784.784h14.109a.786.786,0,0,0,.784-.784V93a.786.786,0,0,0-.784-.784h-5.487V87.907h21.555v4.311h-5.487a.786.786,0,0,0-.784.784v14.109a.786.786,0,0,0,.784.784h14.109a.786.786,0,0,0,.784-.784V93A.786.786,0,0,0,139.584,92.218Zm-27.63,3.723v8.23h-8.23v-8.23Zm4.115-19.988v-8.23h8.23v8.23Zm20.576,28.218h-8.23v-8.23h8.23Z" transform="translate(-100 -64)" fill="#1f467a"/>
</svg>
