<svg xmlns="http://www.w3.org/2000/svg" width="41.475" height="41.188" viewBox="0 0 41.475 41.188">
  <g id="arrow-clockwise" transform="translate(2.011 2.022)">
    <path id="Trazado_279" data-name="Trazado 279" d="M37.538,29.954a18.416,18.416,0,0,1-8.08,8.21,17.968,17.968,0,0,1-11.292,1.717A18.152,18.152,0,0,1,8.079,34.433a18.833,18.833,0,0,1-2.774-21.9,18.377,18.377,0,0,1,8.4-7.874A17.956,17.956,0,0,1,25.055,3.408,17.061,17.061,0,0,1,34.59,9.094a15.863,15.863,0,0,1,2.518,3.676" transform="translate(-3 -3)" fill="none" stroke="#1f4679" stroke-linecap="round" stroke-linejoin="round" stroke-width="4"/>
    <path id="Trazado_280" data-name="Trazado 280" d="M15.069,12.306l10.4,1.872L27.31,3.59" transform="translate(9.841 -2.373)" fill="none" stroke="#1f4679" stroke-linecap="round" stroke-linejoin="round" stroke-width="4"/>
  </g>
</svg>
