<svg xmlns="http://www.w3.org/2000/svg" width="56.457" height="43.916" viewBox="0 0 56.457 43.916">
  <g id="cloud" transform="translate(2.008 2.024)">
    <path id="Trazado_275" data-name="Trazado 275" d="M9.919,15.026c-5.117,1.4-8.474,6.731-7.832,12.431s5.082,9.99,10.358,10h28.76A13.036,13.036,0,0,0,53,29.352a15.259,15.259,0,0,0-1.643-15.078A12.487,12.487,0,0,0,38.146,9.393l-3.477,1.03" transform="translate(-2.008 2.43)" fill="none" stroke="#1f4678" stroke-linecap="round" stroke-linejoin="round" stroke-width="4"/>
    <path id="Trazado_276" data-name="Trazado 276" d="M33.321,16.807C31.466,8.813,24.234,3.756,16.784,5.243s-12.563,9.01-11.69,17.2a14.418,14.418,0,0,0,1.218,3.933" transform="translate(2.817 -4.984)" fill="none" stroke="#1f4678" stroke-linecap="round" stroke-linejoin="round" stroke-width="4"/>
  </g>
</svg>
