<svg xmlns="http://www.w3.org/2000/svg" width="24.08" height="29.6" viewBox="0 0 24.08 29.6">
  <g id="file_1_" data-name="file (1)" transform="translate(-3 -1)">
    <path id="Trazado_20" data-name="Trazado 20" d="M4,4.76V26.84A2.76,2.76,0,0,0,6.76,29.6H23.32a2.76,2.76,0,0,0,2.76-2.76V10.752a2.76,2.76,0,0,0-.831-1.973L19.122,2.787A2.76,2.76,0,0,0,17.193,2H6.76A2.76,2.76,0,0,0,4,4.76Zm6.9,12.42h8.28M10.9,22.7h4.14" fill="none" stroke="#fff" stroke-linecap="round" stroke-linejoin="round" stroke-width="2"/>
    <path id="Trazado_21" data-name="Trazado 21" d="M14,2V7.52a2.76,2.76,0,0,0,2.76,2.76h5.52" transform="translate(3.8)" fill="none" stroke="#fff" stroke-linejoin="round" stroke-width="2"/>
  </g>
</svg>
