<svg xmlns="http://www.w3.org/2000/svg" width="51.164" height="63.455" viewBox="0 0 51.164 63.455">
  <g id="file" transform="translate(1 1)">
    <path id="Trazado_3" data-name="Trazado 3" d="M4,8.145V57.309a6.145,6.145,0,0,0,6.145,6.145H47.018a6.145,6.145,0,0,0,6.145-6.145V21.487a6.145,6.145,0,0,0-1.849-4.393L37.671,3.751A6.145,6.145,0,0,0,33.375,2H10.145A6.145,6.145,0,0,0,4,8.145ZM19.364,35.8H37.8M19.364,48.091h9.218" transform="translate(-4 -2)" fill="none" stroke="#fff" stroke-linecap="round" stroke-linejoin="round" stroke-width="2"/>
    <path id="Trazado_4" data-name="Trazado 4" d="M14,2V14.291a6.145,6.145,0,0,0,6.145,6.145H32.436" transform="translate(16.727 -2)" fill="none" stroke="#fff" stroke-linejoin="round" stroke-width="2"/>
  </g>
</svg>
