<svg xmlns="http://www.w3.org/2000/svg" width="47.895" height="48.668" viewBox="0 0 47.895 48.668">
  <g id="Grupo_4" data-name="Grupo 4" transform="translate(2 2)">
    <g id="chatbot_x2C__chat_bot_x2C__assistant_x2C__chat_x2C__laptop_3_" transform="translate(0 0)" style="isolation: isolate">
      <g id="XMLID_7_" transform="translate(0)">
        <g id="XMLID_155_">
          <path id="XMLID_156_" d="M17.828,45.67H13.955A6.454,6.454,0,0,1,7.5,39.214V15.976a6.454,6.454,0,0,1,6.455-6.455H44.94a6.454,6.454,0,0,1,6.455,6.455V39.214A6.454,6.454,0,0,1,44.94,45.67H25.574L20.41,53.416" transform="translate(-7.5 -9.521)" fill="none" stroke="#1f4679" stroke-linecap="round" stroke-linejoin="round" stroke-miterlimit="10" stroke-width="4"/>
        </g>
        <g id="XMLID_143_" transform="translate(11.619 10.274)">
          <path id="XMLID_145_" d="M22.955,23.828H16.5L22.955,13.5V23.828Z" transform="translate(-4.881 -13.5)" fill="none" stroke="#1f4679" stroke-linecap="round" stroke-linejoin="round" stroke-miterlimit="10" stroke-width="4"/>
          <path id="XMLID_144_" d="M12,17.1a3.6,3.6,0,0,1,3.6-3.6h0a3.6,3.6,0,0,1,3,5.6L12,28.992h7.746" transform="translate(-12 -13.5)" fill="none" stroke="#1f4679" stroke-linecap="round" stroke-linejoin="round" stroke-miterlimit="10" stroke-width="4"/>
        </g>
      </g>
    </g>
  </g>
</svg>
