<svg xmlns="http://www.w3.org/2000/svg" width="37.832" height="45.428" viewBox="0 0 37.832 45.428">
  <path id="node-index-outlined" d="M217.114,147.421a8.514,8.514,0,0,0-16.9.829c-8.718-.273-11.813-2.312-11.308-6.458.187-1.55,1.125-2.38,2.845-2.783a10.462,10.462,0,0,1,3.254-.182c.1.011.2.017.3.028.642.153,1.295.284,1.948.386a27.013,27.013,0,0,0,5.782.375c5.271-.284,8.86-2.607,9.042-7.537.176-4.776-3.107-8.161-8.4-10.428a32.591,32.591,0,0,0-5.3-1.715c-.812-.193-1.494-.324-2-.409a8.509,8.509,0,1,0-.454,3.765c.534.1,1.062.2,1.59.329a28.14,28.14,0,0,1,4.68,1.511c4.015,1.715,6.208,3.981,6.105,6.81-.091,2.533-1.908,3.7-5.464,3.9a23.28,23.28,0,0,1-4.958-.329c-.471-.08-.9-.159-1.284-.244-.221-.045-.375-.085-.443-.1l-.176-.034c-.125-.017-.335-.045-.608-.074a14.182,14.182,0,0,0-4.458.261c-3.135.733-5.333,2.681-5.742,6.009-.892,7.167,4.464,10.49,15.675,10.729a8.515,8.515,0,0,0,16.272-4.634ZM187.9,125.146a4.731,4.731,0,1,1,4.731-4.731A4.731,4.731,0,0,1,187.9,125.146Zm20.815,28.386a4.731,4.731,0,1,1,4.731-4.731A4.731,4.731,0,0,1,208.714,153.532Z" transform="translate(-179.396 -111.895)" fill="#1f467a"/>
</svg>
