<svg xmlns="http://www.w3.org/2000/svg" width="24.138" height="24.138" viewBox="0 0 24.138 24.138">
  <path id="qr-code" d="M5.682,19.092v2.682H3V19.092ZM3,27.138H5.682V24.456H3Zm2.682-5.364v2.682H8.364V21.774Zm5.364-8.046H8.364V16.41H5.682v2.682h5.364ZM3,13.728V16.41H5.682V13.728Zm8.046,10.728H8.364v2.682h6.705V24.456H13.728V21.774H11.046ZM16.41,4.341H13.728V7.023H16.41Zm-2.682,9.387H16.41V9.705H13.728ZM4.341,11.046A1.341,1.341,0,0,1,3,9.705V4.341A1.341,1.341,0,0,1,4.341,3H9.705a1.341,1.341,0,0,1,1.341,1.341V9.705a1.341,1.341,0,0,1-1.341,1.341ZM5.682,8.364H8.364V5.682H5.682ZM27.138,4.341V15.069H24.456V11.046H20.433a1.341,1.341,0,0,1-1.341-1.341V4.341A1.341,1.341,0,0,1,20.433,3H25.8A1.341,1.341,0,0,1,27.138,4.341ZM24.456,5.682H21.774V8.364h2.682Zm2.682,14.751V25.8A1.341,1.341,0,0,1,25.8,27.138H20.433A1.341,1.341,0,0,1,19.092,25.8V21.774H13.728V16.41H16.41v2.682h1.341V13.728h2.682v5.364H25.8A1.341,1.341,0,0,1,27.138,20.433Zm-2.682,1.341H21.774v2.682h2.682Z" transform="translate(-3 -3)" fill="#fff"/>
</svg>
