<svg xmlns="http://www.w3.org/2000/svg" width="43.895" height="43.895" viewBox="0 0 43.895 43.895">
  <path id="qrcode-outlined" d="M147.433,128h-17.6A1.827,1.827,0,0,0,128,129.829v17.6a.459.459,0,0,0,.457.457h18.975a.459.459,0,0,0,.457-.457V128.457A.459.459,0,0,0,147.433,128Zm-3.2,16.232H131.658V131.658h12.574ZM136.345,140h3.2a.459.459,0,0,0,.457-.457v-3.2a.459.459,0,0,0-.457-.457h-3.2a.459.459,0,0,0-.457.457v3.2A.459.459,0,0,0,136.345,140Zm11.088,12H128.457a.459.459,0,0,0-.457.457v17.6a1.827,1.827,0,0,0,1.829,1.829h17.6a.459.459,0,0,0,.457-.457V152.462A.459.459,0,0,0,147.433,152Zm-3.2,16.232H131.658V155.663h12.574Zm-7.887-4.229h3.2a.459.459,0,0,0,.457-.457v-3.2a.459.459,0,0,0-.457-.457h-3.2a.459.459,0,0,0-.457.457v3.2A.459.459,0,0,0,136.345,164.007ZM170.066,128h-17.6a.459.459,0,0,0-.457.457v18.975a.459.459,0,0,0,.457.457h18.975a.459.459,0,0,0,.457-.457v-17.6A1.827,1.827,0,0,0,170.066,128Zm-1.829,16.232H155.663V131.658h12.574ZM160.349,140h3.2a.459.459,0,0,0,.457-.457v-3.2a.459.459,0,0,0-.457-.457h-3.2a.459.459,0,0,0-.457.457v3.2A.459.459,0,0,0,160.349,140Zm11.088,12h-2.743a.459.459,0,0,0-.457.457v7.659h-4.458v-7.659a.459.459,0,0,0-.457-.457H152.462a.459.459,0,0,0-.457.457v18.975a.459.459,0,0,0,.457.457h2.743a.459.459,0,0,0,.457-.457V157.492h4.458v5.83a.459.459,0,0,0,.457.457h10.859a.459.459,0,0,0,.457-.457V152.462A.459.459,0,0,0,171.437,152Zm-8.116,16.232h-2.743a.459.459,0,0,0-.457.457v2.743a.459.459,0,0,0,.457.457h2.743a.459.459,0,0,0,.457-.457v-2.743A.459.459,0,0,0,163.322,168.237Zm8.116,0h-2.743a.459.459,0,0,0-.457.457v2.743a.459.459,0,0,0,.457.457h2.743a.459.459,0,0,0,.457-.457v-2.743A.459.459,0,0,0,171.437,168.237Z" transform="translate(-128 -128)" fill="#1f467a"/>
</svg>
