<?xml version="1.0" encoding="UTF-8"?>
<svg id="Capa_2" data-name="Capa 2" xmlns="http://www.w3.org/2000/svg" viewBox="0 0 100.14 31.68">
  <defs>
    <style>
      .cls-1 {
        fill: #84a3c9;
      }

      .cls-2 {
        fill: #1d1d1b;
      }
    </style>
  </defs>
  <g id="Capa_1-2" data-name="Capa 1">
    <g>
      <g>
        <polygon class="cls-1" points="73.12 10.7 79.91 17.73 97.64 0 100.14 2.59 80.01 22.68 70.76 13.01 73.12 10.7"/>
        <polygon class="cls-1" points="73.12 19.71 79.91 26.68 97.64 8.96 100.14 11.6 80.01 31.68 70.76 21.97 73.12 19.71"/>
      </g>
      <g>
        <path class="cls-2" d="M22.54,25.13H7.87l-2.78,6.55H0L12.82,2.64h5.04l12.68,29.04h-5.23l-2.78-6.55ZM20.65,20.74l-5.47-12.92-5.47,12.92h10.94Z"/>
        <path class="cls-2" d="M52.8,31.68l-5.33-8.82h-8.2v8.77h-4.9V2.59h11.79c7.45,0,11.69,3.63,11.69,9.9,0,4.67-2.17,7.92-6.03,9.43l6.51,9.71h-5.56l.05.05ZM46.16,18.53c4.48,0,7.07-1.89,7.07-5.85s-2.59-5.66-7.07-5.66h-6.88v11.5h6.88Z"/>
      </g>
    </g>
  </g>
</svg>