<svg id="select-multiple" xmlns="http://www.w3.org/2000/svg" width="44.27" height="44.27" viewBox="0 0 44.27 44.27">
  <path id="Trazado_281" data-name="Trazado 281" d="M36.989,2H10.427A4.431,4.431,0,0,0,6,6.427V32.989a4.431,4.431,0,0,0,4.427,4.427H36.989a4.431,4.431,0,0,0,4.427-4.427V6.427A4.431,4.431,0,0,0,36.989,2ZM10.427,32.989V6.427H36.989l0,26.562Z" transform="translate(2.854 -2)" fill="#1f467a"/>
  <path id="Trazado_282" data-name="Trazado 282" d="M6.427,9.991H2V36.553A4.431,4.431,0,0,0,6.427,40.98H32.989V36.553H6.427ZM26.2,17.781l-3.82-3.82-3.13,3.13L26.5,24.337,39.118,9.2l-3.4-2.838Z" transform="translate(-2 3.29)" fill="#1f467a"/>
</svg>
