<svg id="server" xmlns="http://www.w3.org/2000/svg" width="43.932" height="39.539" viewBox="0 0 43.932 39.539">
  <path id="Trazado_283" data-name="Trazado 283" d="M41.539,3H6.393A4.393,4.393,0,0,0,2,7.393V16.18a4.393,4.393,0,0,0,4.393,4.393H41.539a4.393,4.393,0,0,0,4.393-4.393V7.393A4.393,4.393,0,0,0,41.539,3ZM6.393,16.18V7.393H41.539V16.18Zm35.146,8.786H6.393A4.393,4.393,0,0,0,2,29.359v8.786a4.393,4.393,0,0,0,4.393,4.393H41.539a4.393,4.393,0,0,0,4.393-4.393V29.359A4.393,4.393,0,0,0,41.539,24.966ZM6.393,38.146V29.359H41.539v8.786Z" transform="translate(-2 -3)" fill="#1f467a"/>
  <path id="Trazado_284" data-name="Trazado 284" d="M20.59,6h4.393v4.393H20.59ZM14,6h4.393v4.393H14Zm6.59,21.966h4.393v4.393H20.59Zm-6.59,0h4.393v4.393H14Z" transform="translate(12.359 0.59)" fill="#1f467a"/>
</svg>
